<svg width="283" height="430" viewBox="0 0 283 430" fill="none" xmlns="http://www.w3.org/2000/svg">
<path d="M79.8735 174.737C85.6958 175.003 91.9018 175.37 97.2615 177.834C99.8455 179.021 102.192 180.708 103.851 183.006C105.86 185.803 106.785 189.166 107.439 192.495C110.531 208.19 107.405 224.394 105.07 239.966C103.704 249.09 102.339 258.224 100.974 267.348C100.658 269.446 103.919 270.345 104.235 268.236C105.521 259.656 106.807 251.076 108.094 242.497C109.38 233.917 110.757 225.682 111.535 217.213C112.291 208.944 112.359 200.598 110.858 192.396C109.628 185.647 106.932 179.421 100.692 175.836C94.4519 172.251 86.9145 171.729 79.8848 171.407C77.707 171.307 77.707 174.637 79.8848 174.737H79.8735Z" fill="#00BC74"/>
<path d="M105.95 267.259C113.363 239.578 117.753 211.209 125.414 183.583C129.172 170.031 133.73 156.645 139.857 143.937C145.984 131.228 153.431 118.143 164.659 109.119C176.788 99.374 192.145 94.5681 206.837 89.9398C208.902 89.285 208.021 86.0773 205.934 86.7322C192.574 90.9387 178.887 95.2896 167.209 103.137C154.921 111.383 146.718 123.548 139.925 136.345C126.317 162.028 119.637 190.487 113.589 218.623C110.159 234.583 106.909 250.599 102.678 266.382C102.125 268.458 105.386 269.346 105.939 267.27L105.95 267.259Z" fill="#00BC74"/>
<path d="M112.867 235.66C116.76 223.739 117.245 211.131 117.053 198.711C116.85 185.958 116.207 173.261 117.425 160.53C119.817 135.502 125.346 110.606 132.985 86.6323C137.307 73.0914 142.396 59.7947 148.23 46.8087C149.098 44.8664 146.187 43.1682 145.307 45.1328C134.915 68.2522 126.802 92.3483 121.205 117.022C118.407 129.353 116.229 141.828 114.706 154.37C113.916 160.83 113.375 167.312 113.262 173.816C113.149 180.131 113.363 186.435 113.532 192.74C113.905 206.847 114.029 221.187 109.606 234.772C108.94 236.814 112.201 237.691 112.867 235.66Z" fill="#00BC74"/>
<path d="M120.28 255.749C121.623 248.102 123.033 240.055 127.637 233.551C130.108 230.066 133.595 227.369 137.149 225.016C140.703 222.663 144.337 220.709 148.196 219.111C152.653 217.269 157.324 215.959 162.075 215.138C164.218 214.771 163.305 211.553 161.172 211.93C152.393 213.451 143.919 216.703 136.438 221.486C132.669 223.895 128.889 226.647 126.057 230.121C123.417 233.362 121.566 237.081 120.224 241.01C118.689 245.516 117.832 250.2 117.019 254.872C116.647 256.97 119.908 257.869 120.28 255.76V255.749Z" fill="#00BC74"/>
<path d="M119.919 249.933C117.155 236.859 114.255 222.807 118.791 209.777C120.923 203.661 124.624 197.99 128.472 192.773C132.105 187.845 136.235 183.25 140.737 179.066C145.815 174.348 151.366 170.186 157.313 166.601C159.163 165.48 157.471 162.606 155.609 163.727C144.517 170.397 134.802 179.077 126.937 189.255C122.841 194.56 119.05 200.309 116.455 206.491C113.713 213.018 112.844 220.121 113.104 227.136C113.397 235.127 115.011 243.007 116.658 250.81C117.098 252.908 120.37 252.02 119.919 249.922V249.933Z" fill="#00BC74"/>
<path d="M114.706 241.986C120.607 231.476 120.133 219.233 118.373 207.723C116.455 195.181 113.758 182.673 110.982 170.286C108.207 157.9 104.867 145.08 100.545 132.849C98.4011 126.778 95.9865 120.784 93.2897 114.924C90.8298 109.585 88.1556 104.258 83.2021 100.739C77.549 96.7214 70.0116 95.0121 63.3091 93.6025C55.8168 92.0264 48.1552 91.2495 40.4937 91.2606C38.3159 91.2606 38.3159 94.5903 40.4937 94.5903C47.1397 94.5903 53.7745 95.1564 60.3077 96.3995C66.2203 97.5205 72.4601 98.9079 77.8988 101.527C80.4376 102.748 82.7169 104.324 84.5449 106.455C86.3728 108.586 87.7607 111.183 88.9906 113.725C91.71 119.308 94.0908 125.046 96.2347 130.862C104.822 154.159 109.673 178.71 114.142 203.029C116.399 215.282 118.159 228.934 111.772 240.31C110.723 242.186 113.645 243.873 114.695 241.986H114.706Z" fill="#00BC74"/>
<path d="M72.8663 173.76C72.2796 173.916 76.2401 165.303 73.8141 156.446C71.3882 147.589 63.5009 141.839 64.0764 141.684C64.6518 141.528 72.4037 147.178 74.8297 156.035C77.2556 164.892 73.4418 173.605 72.8663 173.76ZM83.3601 207.901C82.7733 208.056 86.7339 199.444 84.3079 190.586C81.8819 181.729 73.9947 175.98 74.5701 175.825C75.1456 175.669 82.8974 181.319 85.3234 190.176C87.7494 199.033 83.9355 207.746 83.3601 207.901ZM65.5207 212.096C64.9114 212.13 70.6321 204.538 70.1695 195.37C69.7069 186.202 63.2301 178.943 63.8394 178.91C64.4487 178.877 70.8014 186.014 71.264 195.181C71.7267 204.338 66.13 212.063 65.5207 212.096ZM80.6407 173.105C80.7987 173.683 64.4262 178.522 44.0705 183.916C23.7149 189.31 7.09414 193.217 6.93617 192.64C6.7782 192.063 23.1507 187.223 43.5064 181.829C63.862 176.435 80.4827 172.528 80.6407 173.105ZM81.7804 196.891C83.3488 202.629 81.9609 208.911 79.7493 214.416C91.8905 211.619 100.951 206.214 101.899 198.8C102.79 191.841 91.8679 183.45 83.597 177.945C79.9524 175.525 78.6661 170.841 80.5843 166.945C84.9285 158.099 89.8369 146.623 85.504 141.051C80.8551 135.069 70.2147 134.536 58.2315 137.888C63.4106 147.833 64.8662 160.341 65.4643 170.886C65.6561 174.36 60.1722 174.315 59.9691 170.852C59.405 160.896 58.1412 148.809 52.9394 139.586C49.3061 140.896 45.6164 142.538 41.9944 144.447C42.4118 145.557 42.7955 146.678 43.1678 147.822C46.0113 156.379 47.1848 165.358 48.505 174.226C49.0128 177.634 43.7095 179.066 43.2017 175.636C42.0846 168.133 41.0804 160.574 39.0719 153.227C38.5754 151.429 38.0564 149.242 37.3455 147.078C35.2129 148.365 33.1254 149.753 31.0944 151.218C33.385 155.857 34.8518 160.941 37.3342 165.469C39.0042 168.533 34.2764 171.274 32.6064 168.211C30.5641 164.459 29.289 160.264 27.5175 156.39C27.2467 155.802 26.9759 155.214 26.7051 154.636C22.4286 158.188 18.7163 161.984 15.6584 165.847C15.6923 165.88 15.7261 165.902 15.7487 165.935C18.0731 168.011 20.4088 170.053 23.2748 171.363C25.7347 172.484 28.5669 172.717 30.9026 174.071C33.9491 175.847 31.2072 180.531 28.1606 178.755C25.7008 177.323 22.4398 177.023 19.8333 175.703C17.1591 174.348 14.8573 172.395 12.6231 170.442C12.5667 170.386 12.5103 170.331 12.4426 170.286C10.4679 173.294 8.89952 176.291 7.77116 179.199C8.9108 179.476 10.0279 179.787 11.0998 180.109C14.4736 181.119 13.0519 186.335 9.65552 185.325C8.3579 184.937 7.00387 184.549 5.63855 184.249C5.4693 184.859 5.33389 185.481 5.25491 186.113C4.99539 188.178 2.56941 190.931 3.24643 192.962C3.32541 193.206 3.39311 193.45 3.44953 193.705C3.91216 195.781 7.41008 196.98 8.68513 198.622C9.90376 200.187 11.4383 201.43 13.2211 202.396C14.5075 203.517 15.9405 204.582 17.4976 205.604C20.7812 202.285 22.5978 197.79 25.0689 193.905C26.9533 190.964 31.715 193.65 29.8306 196.602C27.3482 200.498 25.3849 204.926 22.3044 208.412C26.8405 210.753 32.1099 212.707 37.8645 214.105C37.8871 213.917 37.921 213.728 37.9435 213.55C38.9591 205.97 38.7447 196.857 43.292 190.287C45.2779 187.434 50.0508 190.109 48.0536 192.984C45.7744 196.269 45.0973 200.398 44.5557 204.272C44.048 207.912 43.732 211.575 43.213 215.215C44.5783 215.46 45.9662 215.67 47.3766 215.848C49.7688 216.148 52.1947 216.347 54.6207 216.458C54.9366 216.003 55.2187 215.526 55.4783 215.004C58.8972 208.312 58.5474 200.054 58.5248 192.762C58.5248 189.288 64.0087 189.31 64.02 192.795C64.0425 200.642 64.1666 209.266 60.7928 216.581C65.0468 216.525 69.233 216.214 73.2048 215.637C73.6449 214.805 74.0511 213.95 74.4009 213.084C76.2627 208.6 77.786 203.117 76.4658 198.311C75.5518 194.948 80.8551 193.55 81.7691 196.902L81.7804 196.891ZM67.5404 161.751C66.6152 158.388 71.9185 156.989 72.8437 160.341C73.769 163.693 68.4657 165.103 67.5404 161.751ZM73.1033 190.376C72.3698 190.409 71.7267 189.721 71.7379 189.021C71.7605 187.579 71.8621 186.136 72.1442 184.715C72.2908 183.971 73.1484 183.616 73.8254 183.772C74.1526 183.849 74.4799 184.105 74.6491 184.393C74.8409 184.715 74.8635 185.07 74.7958 185.436C74.7394 185.703 74.6943 185.969 74.6604 186.247C74.5476 187.179 74.5024 188.111 74.4911 189.055C74.4799 189.809 73.8593 190.364 73.1145 190.398L73.1033 190.376ZM51.9578 164.681C51.1679 164.714 50.6489 164.026 50.5925 163.327C50.536 162.717 50.4909 162.106 50.4232 161.496C50.4119 161.374 50.3894 161.24 50.3781 161.118C50.3781 161.096 50.3781 161.063 50.3668 161.03C50.3555 160.941 50.3442 160.852 50.3217 160.763C50.2652 160.441 50.2088 160.131 50.1411 159.82C50.0621 159.498 49.9831 159.165 49.8703 158.854C49.8252 158.71 49.7575 158.554 49.7123 158.41C49.6785 158.344 49.6446 158.277 49.6108 158.21C49.5431 158.066 49.4641 157.922 49.3738 157.789C49.34 157.733 49.3061 157.689 49.2723 157.633C49.2271 157.578 49.0805 157.445 49.2159 157.544C49.3738 157.655 49.182 157.511 49.1482 157.478C49.103 157.433 49.0692 157.389 49.024 157.345C48.9789 157.3 48.9225 157.267 48.8773 157.223C48.2455 156.801 48.0085 156.068 48.3696 155.38C48.6968 154.77 49.6446 154.481 50.2427 154.881C52.9507 156.69 53.0974 160.441 53.3457 163.349C53.4134 164.104 52.6574 164.67 51.9691 164.692L51.9578 164.681ZM24.7417 168.688C23.32 167.878 22.3721 166.546 21.1648 165.491C20.5893 164.992 20.6796 164.104 21.1535 163.582C21.3905 163.327 21.7967 163.183 22.1352 163.183C22.4963 163.183 22.8235 163.338 23.0943 163.571C24.0196 164.37 24.7756 165.347 25.7347 166.102C25.8588 166.191 25.9829 166.268 26.107 166.346C26.7728 166.723 26.9533 167.534 26.6148 168.188C26.2763 168.832 25.3623 169.043 24.7417 168.688ZM22.6204 185.059C22.248 185.059 21.9321 184.904 21.6613 184.671C20.3524 183.55 18.9194 182.551 18.0392 181.03C17.6556 180.375 17.8926 179.587 18.5244 179.177C19.1338 178.788 20.0477 179.043 20.4088 179.654C20.5216 179.842 20.6345 180.02 20.7699 180.198C21.5823 181.174 22.6317 181.918 23.5908 182.75C24.1662 183.25 24.076 184.149 23.6021 184.66C23.3651 184.915 22.9589 185.059 22.6204 185.059ZM16.6626 197.601C16.5837 197.867 16.5272 198.134 16.4708 198.411C16.4708 198.467 16.4483 198.522 16.437 198.589C16.437 198.611 16.4257 198.689 16.4144 198.733C16.4144 198.811 16.4031 198.877 16.3918 198.955C16.3241 199.71 15.8051 200.265 15.0152 200.298C14.3156 200.32 13.5822 199.643 13.6499 198.944C13.7628 197.712 14.0787 196.547 14.5526 195.403C15.0152 194.305 15.5568 193.261 16.0872 192.196C16.4257 191.519 17.3397 191.374 17.9603 191.696C18.6486 192.052 18.784 192.906 18.468 193.539C18.028 194.427 17.5879 195.315 17.1591 196.214C17.1366 196.258 17.0576 196.447 17.035 196.502C16.9899 196.624 16.9447 196.746 16.8996 196.869C16.8093 197.113 16.7303 197.357 16.6626 197.612V197.601ZM34.4569 195.625C34.7841 195.703 35.1113 195.958 35.2806 196.247C35.4724 196.569 35.495 196.924 35.4273 197.29C35.3709 197.557 35.3257 197.823 35.2919 198.101C35.179 199.033 35.1339 199.965 35.1226 200.909C35.1113 201.663 34.4907 202.218 33.746 202.252C33.0126 202.285 32.3694 201.597 32.3807 200.897C32.4033 199.455 32.5048 198.012 32.7869 196.591C32.9336 195.847 33.7912 195.492 34.4682 195.648L34.4569 195.625ZM53.1538 202.474C53.8083 202.807 54.0114 203.706 53.6616 204.316C53.5375 204.538 53.4246 204.76 53.3231 204.993C52.9507 205.948 52.7589 206.958 52.6122 207.968C52.5671 208.312 52.2624 208.6 51.9803 208.778C51.6644 208.978 51.2695 209 50.9197 208.922C50.5925 208.844 50.2652 208.589 50.096 208.301C49.8929 207.957 49.9042 207.635 49.9493 207.257C50.1637 205.759 50.5022 204.294 51.2695 202.962C51.6531 202.307 52.4881 202.129 53.1426 202.462L53.1538 202.474ZM51.6418 191.463C51.1792 189.787 53.8309 189.077 54.2935 190.764C54.7561 192.451 52.1045 193.15 51.6418 191.463ZM54.8238 178.544C54.2371 178.699 58.1976 170.086 55.7716 161.229C53.3457 152.372 45.4584 146.623 46.0339 146.468C46.6093 146.312 54.3612 151.962 56.7872 160.819C59.2131 169.676 55.3993 178.389 54.8238 178.544Z" fill="#00BC74"/>
<path d="M220.005 66.6872C222.002 61.0822 226.764 56.6647 231.74 53.3572C220.106 48.9176 209.533 48.3515 204.49 53.9454C199.751 59.1953 203.948 72.1924 207.627 81.3269C209.24 85.3559 207.627 89.9176 203.801 92.0708C195.136 96.9655 184.495 103.703 184.867 110.706C185.274 118.231 193.748 124.58 205.562 128.465C206.995 117.377 212.975 106.244 218.538 97.2208C220.366 94.2463 224.879 97.3318 223.051 100.295C217.804 108.83 211.903 119.497 210.91 130.008C214.656 130.94 218.651 131.639 222.735 132.072C223.029 130.929 223.356 129.786 223.706 128.642C226.278 119.996 230.453 111.938 234.459 103.88C235.994 100.795 241.195 102.548 239.638 105.667C236.253 112.482 232.744 119.286 230.194 126.456C229.573 128.21 228.749 130.307 228.095 132.494C230.6 132.616 233.116 132.627 235.632 132.549C236.411 127.444 238.104 122.438 238.668 117.321C239.051 113.858 244.524 114.236 244.152 117.688C243.689 121.916 242.335 126.09 241.568 130.274C241.455 130.907 241.342 131.539 241.229 132.183C246.792 131.628 252.039 130.551 256.789 129.064C256.789 129.02 256.767 128.986 256.755 128.942C256.033 125.934 255.277 122.96 253.652 120.285C252.265 117.987 250.064 116.222 248.913 113.814C247.424 110.662 252.366 108.309 253.867 111.472C255.074 114.014 257.59 116.078 258.99 118.609C260.423 121.217 261.201 124.103 261.912 126.955C261.935 127.033 261.946 127.111 261.968 127.188C265.32 125.801 268.344 124.203 270.939 122.427C270.16 121.572 269.416 120.695 268.705 119.83C266.493 117.122 270.668 113.614 272.891 116.333C273.737 117.377 274.629 118.442 275.588 119.452C276.084 119.042 276.547 118.609 276.976 118.132C278.375 116.578 281.952 115.645 282.561 113.603C282.64 113.359 282.719 113.115 282.821 112.871C283.633 110.906 281.433 107.976 281.32 105.9C281.218 103.936 280.665 102.049 279.74 100.273C279.311 98.6304 278.747 96.9544 278.059 95.2452C273.444 96.1664 269.359 98.8635 265.094 100.695C261.856 102.082 259.463 97.2208 262.713 95.8223C267.001 93.991 271.153 91.4271 275.701 90.2506C273.297 85.7999 270.081 81.2603 266.132 76.9095C266.008 77.0538 265.873 77.1869 265.748 77.3201C260.558 83.014 255.503 90.6613 247.977 93.547C244.704 94.8012 242.301 89.9398 245.596 88.6745C249.365 87.2316 252.287 84.1905 254.961 81.3047C257.478 78.5854 259.836 75.733 262.352 73.0137C261.359 72.0592 260.344 71.1046 259.283 70.1834C257.478 68.6073 255.593 67.0979 253.652 65.655C253.133 65.8548 252.614 66.099 252.107 66.3764C245.438 70.0058 240.992 77.0094 236.817 83.0473C234.831 85.9219 230.318 82.8475 232.304 79.9728C236.795 73.4798 241.647 66.2987 248.62 62.1366C245.077 59.8169 241.444 57.7524 237.833 56.021C236.986 56.4649 236.163 56.9422 235.373 57.4639C231.266 60.1387 226.865 63.8125 225.184 68.5075C224.01 71.7928 218.831 70.0058 220.005 66.7205V66.6872ZM211.576 103.592C210.402 106.877 205.223 105.09 206.397 101.805C207.57 98.5194 212.749 100.306 211.576 103.592ZM226.12 109.818C226.786 110.229 226.82 111.084 226.47 111.694C226.166 112.227 225.85 112.76 225.556 113.292C225.5 113.403 225.432 113.514 225.376 113.636C225.376 113.659 225.353 113.681 225.331 113.725C225.285 113.803 225.252 113.881 225.218 113.969C225.082 114.258 224.947 114.558 224.823 114.857C224.699 115.168 224.586 115.479 224.484 115.801C224.439 115.956 224.405 116.1 224.36 116.256C224.36 116.333 224.338 116.4 224.326 116.478C224.304 116.633 224.292 116.8 224.281 116.955C224.281 117.022 224.281 117.077 224.281 117.144C224.281 117.221 224.338 117.41 224.281 117.244C224.225 117.066 224.281 117.288 224.304 117.343C224.304 117.399 224.326 117.466 224.338 117.521C224.349 117.577 224.371 117.643 224.383 117.699C224.665 118.398 224.439 119.13 223.74 119.497C223.119 119.819 222.171 119.53 221.912 118.864C220.716 115.856 222.747 112.693 224.213 110.162C224.597 109.508 225.545 109.463 226.12 109.818ZM250.877 121.628C251.576 123.082 251.599 124.713 251.994 126.256C252.186 126.989 251.599 127.677 250.91 127.843C250.572 127.921 250.143 127.821 249.861 127.632C249.556 127.433 249.387 127.122 249.297 126.778C248.992 125.601 248.925 124.38 248.575 123.226C248.518 123.082 248.473 122.949 248.405 122.815C248.078 122.138 248.383 121.361 249.049 121.017C249.703 120.673 250.572 121.017 250.877 121.65V121.628ZM262.025 109.297C262.329 109.508 262.499 109.807 262.589 110.151C263.029 111.805 263.638 113.426 263.492 115.168C263.424 115.923 262.781 116.444 262.025 116.422C261.291 116.4 260.682 115.69 260.75 114.979C260.772 114.768 260.772 114.547 260.761 114.336C260.648 113.07 260.219 111.883 259.892 110.662C259.7 109.929 260.287 109.241 260.975 109.075C261.314 108.997 261.743 109.097 262.025 109.286V109.297ZM274.132 102.26C274.347 102.082 274.561 101.894 274.753 101.694C274.798 101.649 274.832 101.605 274.877 101.572C274.888 101.561 274.945 101.505 274.978 101.472C275.024 101.416 275.08 101.361 275.125 101.305C275.61 100.717 276.366 100.551 277.032 100.961C277.619 101.327 277.833 102.293 277.382 102.837C276.581 103.791 275.655 104.58 274.606 105.257C273.602 105.9 272.541 106.466 271.492 107.044C270.826 107.41 269.991 107.021 269.664 106.411C269.303 105.734 269.675 104.957 270.307 104.613C271.187 104.124 272.056 103.636 272.925 103.126C272.97 103.092 273.139 102.992 273.196 102.959C273.308 102.881 273.41 102.815 273.512 102.737C273.726 102.582 273.929 102.426 274.132 102.26ZM258.312 94.0021C258.087 93.7579 257.963 93.3583 257.985 93.0365C258.008 92.6591 258.2 92.3594 258.47 92.1041C258.674 91.9155 258.854 91.7157 259.046 91.5159C259.678 90.8166 260.253 90.0619 260.795 89.2961C261.235 88.6745 262.07 88.5635 262.702 88.952C263.322 89.3405 263.458 90.2506 263.052 90.8277C262.205 92.0042 261.291 93.1474 260.242 94.1575C259.689 94.6791 258.786 94.5126 258.301 94.0021H258.312ZM246.815 77.975C246.465 77.3312 246.815 76.4766 247.458 76.1769C247.683 76.0659 247.909 75.9438 248.123 75.8107C248.981 75.2335 249.714 74.501 250.425 73.7462C250.662 73.4909 251.08 73.4244 251.407 73.4244C251.779 73.4244 252.118 73.6352 252.355 73.9016C252.58 74.1458 252.705 74.5454 252.682 74.8672C252.659 75.2668 252.456 75.5221 252.197 75.7996C251.159 76.9095 250.042 77.9417 248.642 78.6076C247.954 78.9406 247.164 78.6187 246.815 77.975ZM241.748 87.8976C241.161 89.5402 238.577 88.6412 239.153 87.0097C239.728 85.3781 242.324 86.266 241.748 87.8976ZM223.412 76.8762C224.033 77.2646 224.168 78.1748 223.762 78.7519C222.916 79.9284 222.002 81.0716 220.952 82.0817C220.4 82.6033 219.497 82.4368 219.012 81.9263C218.786 81.6821 218.662 81.2825 218.684 80.9606C218.707 80.5833 218.899 80.2836 219.17 80.0283C219.373 79.8396 219.553 79.6399 219.745 79.4401C220.377 78.7408 220.952 77.9861 221.494 77.2202C221.934 76.5987 222.769 76.4877 223.401 76.8762H223.412ZM214.081 90.7278C214.656 90.9276 206.442 95.8334 203.361 104.491C200.281 113.148 203.497 122.283 202.921 122.083C202.346 121.883 199.198 112.926 202.278 104.269C205.359 95.6115 213.505 90.5392 214.081 90.7278ZM231.706 96.7991C232.281 96.9988 224.067 101.905 220.986 110.562C217.906 119.219 221.122 128.354 220.546 128.154C219.971 127.954 216.823 118.997 219.903 110.34C222.984 101.683 231.13 96.6104 231.706 96.7991ZM225.026 56.7202C225.601 56.92 217.387 61.8258 214.306 70.4831C211.226 79.1404 214.442 88.275 213.866 88.0752C213.291 87.8754 210.143 78.9184 213.223 70.2611C216.304 61.6038 224.45 56.5315 225.026 56.7202ZM242.154 63.1688C242.673 63.4796 233.59 66.5651 228.716 74.39C223.841 82.2037 225.015 91.8045 224.496 91.4826C223.976 91.1607 222.837 81.7487 227.711 73.9349C232.586 66.1212 241.647 62.858 242.154 63.1688ZM207.288 86.9542C207.491 86.3881 223.773 91.4826 243.678 98.3418C263.571 105.19 279.537 111.206 279.334 111.761C279.131 112.316 262.849 107.232 242.944 100.373C223.051 93.5248 207.085 87.5091 207.288 86.9542Z" fill="#00BC74"/>
<path d="M165.64 211.22C165.888 211.253 163.056 213.95 162.616 217.69C162.176 221.431 164.309 224.805 164.06 224.783C163.812 224.761 161.725 221.442 162.154 217.701C162.582 213.961 165.381 211.197 165.629 211.22H165.64ZM173.268 212.074C173.516 212.108 170.684 214.805 170.244 218.545C169.804 222.285 171.936 225.66 171.688 225.637C171.44 225.615 169.353 222.297 169.781 218.556C170.21 214.816 173.008 212.052 173.257 212.074H173.268ZM166.893 196.613C167.141 196.647 164.309 199.344 163.869 203.084C163.429 206.824 165.561 210.199 165.313 210.176C165.065 210.154 162.977 206.835 163.406 203.095C163.835 199.355 166.633 196.591 166.881 196.613H166.893ZM174.351 197.668C174.588 197.745 171.237 199.799 170.007 203.361C168.777 206.935 170.131 210.665 169.894 210.587C169.657 210.509 168.326 206.835 169.556 203.273C170.786 199.71 174.114 197.59 174.351 197.668ZM162.571 210.321C162.605 210.076 169.601 210.665 178.199 211.63C186.797 212.596 193.759 213.584 193.725 213.817C193.691 214.05 186.695 213.473 178.097 212.507C169.499 211.542 162.537 210.554 162.571 210.321ZM165.798 201.064C166.08 198.633 167.581 196.447 169.274 194.671C164.207 193.938 159.908 194.649 158.407 197.346C156.997 199.876 159.874 204.704 162.187 208.034C163.203 209.499 162.977 211.475 161.646 212.685C158.622 215.415 154.988 219.067 155.778 221.841C156.636 224.816 160.619 226.603 165.708 227.114C165.257 222.541 166.622 217.546 168.021 213.428C168.484 212.074 170.571 212.907 170.12 214.261C168.8 218.145 167.423 222.951 167.998 227.247C169.589 227.28 171.248 227.213 172.929 227.014C172.941 226.525 172.963 226.037 172.997 225.549C173.223 221.853 174.159 218.256 175.017 214.66C175.344 213.284 177.59 213.528 177.262 214.916C176.54 217.946 175.762 220.987 175.401 224.095C175.31 224.86 175.175 225.771 175.118 226.703C176.134 226.525 177.138 226.314 178.142 226.048C177.984 223.928 178.199 221.775 177.951 219.677C177.781 218.256 180.016 217.912 180.185 219.333C180.388 221.065 180.23 222.863 180.309 224.605C180.32 224.872 180.331 225.138 180.354 225.393C182.532 224.672 184.54 223.773 186.3 222.752C186.3 222.74 186.289 222.718 186.278 222.707C185.714 221.564 185.127 220.443 184.236 219.511C183.468 218.712 182.419 218.201 181.742 217.335C180.851 216.203 182.622 214.827 183.513 215.959C184.236 216.869 185.432 217.468 186.222 218.367C187.034 219.289 187.609 220.365 188.162 221.453C188.174 221.486 188.196 221.508 188.207 221.542C189.426 220.687 190.487 219.777 191.367 218.834C190.972 218.556 190.6 218.279 190.238 217.99C189.099 217.102 190.453 215.326 191.593 216.214C192.033 216.558 192.484 216.902 192.958 217.224C193.116 217.013 193.262 216.802 193.387 216.569C193.804 215.826 195.147 215.127 195.203 214.25C195.203 214.139 195.226 214.039 195.237 213.939C195.384 213.073 194.233 212.096 193.996 211.275C193.77 210.498 193.375 209.788 192.845 209.155C192.529 208.534 192.145 207.912 191.705 207.291C189.945 208.067 188.557 209.521 187.011 210.631C185.838 211.475 184.439 209.743 185.612 208.889C187.158 207.768 188.591 206.369 190.306 205.492C188.93 203.916 187.226 202.396 185.24 200.997C185.206 201.064 185.161 201.131 185.127 201.197C183.57 203.939 182.25 207.457 179.508 209.288C178.312 210.088 176.901 208.356 178.109 207.546C179.485 206.625 180.377 205.148 181.178 203.75C181.934 202.44 182.622 201.086 183.378 199.765C182.893 199.466 182.396 199.177 181.889 198.9C181.02 198.433 180.128 197.99 179.214 197.59C179.023 197.712 178.842 197.856 178.661 198.012C176.326 200.065 175.186 203.273 174.08 206.059C173.55 207.39 171.451 206.558 171.982 205.226C173.178 202.229 174.464 198.911 176.879 196.624C175.243 196.014 173.595 195.514 171.993 195.137C171.699 195.392 171.406 195.659 171.147 195.936C169.747 197.368 168.326 199.244 168.089 201.275C167.919 202.696 165.685 202.44 165.843 201.02L165.798 201.064ZM165.832 216.603C165.663 218.023 163.429 217.768 163.587 216.347C163.745 214.927 165.99 215.182 165.832 216.603ZM172.23 217.801C172.534 217.901 172.625 218.245 172.546 218.523C172.467 218.767 172.399 219 172.331 219.244C172.32 219.3 172.309 219.344 172.286 219.4C172.286 219.4 172.286 219.422 172.286 219.433C172.286 219.466 172.264 219.5 172.264 219.544C172.23 219.677 172.207 219.799 172.185 219.932C172.162 220.066 172.151 220.21 172.14 220.343C172.14 220.41 172.14 220.476 172.14 220.532C172.14 220.565 172.14 220.598 172.14 220.621C172.14 220.687 172.151 220.754 172.162 220.82C172.162 220.843 172.162 220.876 172.173 220.898C172.173 220.931 172.219 220.998 172.173 220.942C172.128 220.876 172.173 220.965 172.185 220.976C172.185 220.998 172.207 221.02 172.219 221.042C172.219 221.065 172.241 221.087 172.252 221.109C172.433 221.364 172.41 221.675 172.162 221.886C171.948 222.075 171.542 222.041 171.372 221.797C170.616 220.698 171.135 219.244 171.485 218.101C171.575 217.801 171.948 217.701 172.219 217.79L172.23 217.801ZM177.578 203.184C177.375 202.962 177.443 202.585 177.669 202.407C177.748 202.34 177.826 202.274 177.905 202.196C178.199 201.885 178.425 201.53 178.639 201.164C178.707 201.042 178.865 200.975 179 200.953C179.147 200.92 179.305 200.975 179.429 201.053C179.542 201.131 179.632 201.275 179.643 201.408C179.666 201.563 179.621 201.697 179.542 201.83C179.226 202.374 178.876 202.884 178.379 203.273C178.131 203.461 177.781 203.406 177.59 203.184H177.578ZM176.461 207.612C176.382 208.323 175.254 208.201 175.344 207.49C175.434 206.78 176.551 206.902 176.461 207.612ZM168.1 204.838C168.382 204.938 168.529 205.293 168.416 205.559C168.19 206.103 167.931 206.647 167.592 207.146C167.423 207.402 167.039 207.413 166.802 207.257C166.69 207.18 166.599 207.035 166.588 206.902C166.565 206.747 166.611 206.613 166.69 206.48C166.746 206.392 166.814 206.292 166.87 206.192C167.062 205.859 167.22 205.504 167.367 205.148C167.491 204.86 167.807 204.738 168.1 204.838ZM183.243 220.321C183.66 220.843 183.818 221.497 184.123 222.075C184.269 222.352 184.1 222.674 183.829 222.807C183.705 222.874 183.525 222.863 183.389 222.807C183.254 222.752 183.152 222.641 183.085 222.519C182.859 222.075 182.712 221.586 182.464 221.153C182.43 221.098 182.396 221.053 182.363 220.998C182.171 220.754 182.216 220.421 182.453 220.221C182.678 220.021 183.062 220.077 183.243 220.31V220.321ZM186.571 214.383C186.707 214.438 186.808 214.549 186.876 214.671C187.203 215.293 187.598 215.892 187.7 216.603C187.745 216.913 187.53 217.18 187.226 217.235C186.932 217.291 186.616 217.058 186.583 216.769C186.571 216.68 186.549 216.592 186.526 216.514C186.368 216.014 186.075 215.582 185.838 215.115C185.691 214.838 185.872 214.505 186.131 214.383C186.255 214.316 186.436 214.327 186.571 214.383ZM190.769 210.476C190.837 210.387 190.904 210.287 190.972 210.199C190.983 210.176 190.994 210.154 191.006 210.132C191.006 210.132 191.028 210.099 191.04 210.076C191.051 210.054 191.073 210.021 191.085 209.999C191.231 209.721 191.514 209.588 191.818 209.688C192.089 209.777 192.27 210.154 192.134 210.409C191.897 210.864 191.604 211.264 191.243 211.63C190.904 211.985 190.532 212.296 190.159 212.629C189.923 212.84 189.561 212.751 189.37 212.54C189.167 212.307 189.246 211.952 189.46 211.763C189.765 211.486 190.069 211.22 190.374 210.931C190.385 210.92 190.453 210.853 190.464 210.842C190.498 210.798 190.532 210.765 190.577 210.72C190.645 210.642 190.712 210.554 190.78 210.476H190.769ZM183.671 208.578C183.559 208.5 183.468 208.356 183.457 208.223C183.434 208.067 183.48 207.934 183.559 207.801C183.615 207.712 183.683 207.612 183.739 207.513C183.931 207.18 184.089 206.824 184.236 206.469C184.36 206.181 184.676 206.059 184.969 206.158C185.251 206.258 185.398 206.613 185.285 206.88C185.059 207.424 184.8 207.968 184.461 208.467C184.292 208.722 183.908 208.733 183.671 208.578Z" fill="#00BC74"/>
<path d="M154.357 44.5334C154.921 44.3226 151.931 53.2906 155.304 61.848C158.678 70.3943 167.152 75.2779 166.588 75.4999C166.024 75.7219 157.708 70.916 154.323 62.3697C150.949 53.8234 153.781 44.7554 154.345 44.5445L154.357 44.5334ZM171.756 37.874C172.32 37.6631 169.33 46.6312 172.704 55.1886C176.078 63.746 184.552 68.6185 183.987 68.8405C183.423 69.0624 175.107 64.2565 171.722 55.7102C168.348 47.1639 171.18 38.096 171.745 37.8851L171.756 37.874ZM142.96 22.4795C140.771 16.9411 141.471 10.548 143.073 4.84307C131.304 8.90534 122.887 15.2318 122.751 22.7126C122.616 29.7272 134.396 36.9195 143.22 41.5145C147.113 43.5345 148.895 48.0519 147.417 52.1252C144.066 61.3819 140.433 73.3023 145.341 78.3968C150.622 83.8575 161.262 83.2582 172.805 78.6632C166.577 69.3177 163.767 57.0421 162.018 46.6201C161.443 43.1904 166.915 42.6466 167.479 46.0762C169.127 55.9211 171.7 67.7971 177.883 76.4211C181.347 74.7341 184.834 72.714 188.241 70.4276C187.711 69.3732 187.203 68.2855 186.707 67.1978C182.949 58.9845 180.805 50.194 178.515 41.5034C177.635 38.1737 182.746 36.1869 183.638 39.5499C185.567 46.8975 187.395 54.3006 190.193 61.393C190.882 63.1244 191.638 65.2444 192.585 67.331C194.571 65.8215 196.49 64.2232 198.34 62.5584C195.564 58.1853 193.545 53.2906 190.588 49.0397C188.591 46.165 193.003 42.9463 195 45.8098C197.437 49.3171 199.164 53.3572 201.342 57.031C201.669 57.586 202.007 58.1409 202.346 58.6959C206.205 54.7224 209.488 50.5491 212.106 46.3759C212.072 46.3537 212.038 46.3204 212.005 46.2982C209.466 44.4779 206.927 42.7021 203.926 41.7032C201.353 40.8485 198.521 40.9151 196.05 39.8052C192.834 38.3623 195.045 33.4232 198.261 34.8661C200.856 36.0315 204.129 35.9871 206.871 37.0194C209.68 38.0849 212.174 39.783 214.611 41.4923C214.679 41.5367 214.735 41.5811 214.803 41.6366C216.439 38.44 217.669 35.2879 218.481 32.28C217.319 32.1246 216.18 31.936 215.074 31.7251C211.61 31.0813 212.456 25.7427 215.943 26.3864C217.274 26.6306 218.662 26.8748 220.05 27.0302C220.151 26.4086 220.219 25.776 220.23 25.1322C220.264 23.0567 222.374 20.0599 221.483 18.1176C221.381 17.8845 221.28 17.6403 221.201 17.3961C220.524 15.3761 216.913 14.5659 215.457 13.0564C214.081 11.6357 212.422 10.548 210.538 9.78216C209.139 8.80544 207.593 7.89532 205.934 7.04069C203.034 10.6923 201.714 15.3539 199.683 19.4717C198.137 22.5905 193.105 20.4262 194.662 17.2963C196.704 13.1674 198.171 8.55017 200.856 4.75427C196.083 2.90072 190.645 1.52444 184.766 0.736401C184.766 0.925086 184.766 1.11377 184.755 1.29136C184.563 8.93863 185.781 17.9733 181.968 24.9879C180.309 28.0402 175.276 25.887 176.946 22.8125C178.853 19.3052 179.079 15.1208 179.192 11.225C179.305 7.55125 179.214 3.87745 179.339 0.203645C177.951 0.114852 176.551 0.0371583 175.13 0.0149601C172.715 -0.0294363 170.278 0.0260592 167.863 0.170347C167.604 0.658708 167.367 1.16927 167.164 1.70202C164.489 8.71665 165.742 16.8967 166.554 24.1444C166.949 27.5962 161.477 28.1512 161.093 24.6883C160.213 16.8856 159.152 8.32818 161.714 0.703104C157.493 1.20256 153.364 1.9573 149.471 2.95622C149.121 3.83305 148.816 4.72098 148.557 5.62C147.203 10.2705 146.278 15.8867 148.117 20.5261C149.392 23.767 144.28 25.7205 142.994 22.4795H142.96ZM160.946 55.9211C162.233 59.162 157.11 61.1155 155.823 57.8746C154.537 54.6336 159.66 52.6802 160.946 55.9211ZM176.111 51.3594C176.89 51.2484 177.477 51.8699 177.612 52.5692C177.725 53.1685 177.838 53.7679 177.973 54.3672C177.996 54.4893 178.03 54.6225 178.063 54.7446C178.063 54.7668 178.075 54.8001 178.086 54.8334C178.109 54.9222 178.131 55.011 178.154 55.0887C178.244 55.3995 178.334 55.7102 178.436 56.0099C178.549 56.3318 178.662 56.6426 178.808 56.9422C178.876 57.0865 178.944 57.2197 179.023 57.364C179.068 57.4306 179.102 57.4972 179.147 57.5527C179.237 57.6859 179.327 57.8191 179.429 57.9411C179.463 57.9855 179.508 58.041 179.553 58.0854C179.598 58.1409 179.767 58.2519 179.621 58.1631C179.451 58.0632 179.666 58.1964 179.7 58.2297C179.745 58.2741 179.79 58.3074 179.846 58.3407C179.891 58.374 179.948 58.4073 180.004 58.4517C180.681 58.8069 180.997 59.5061 180.704 60.2276C180.444 60.8713 179.53 61.2487 178.898 60.9157C176.01 59.3951 175.457 55.688 174.893 52.8245C174.746 52.0808 175.434 51.4482 176.123 51.3483L176.111 51.3594ZM202.729 44.5001C204.23 45.155 205.313 46.387 206.634 47.2971C207.265 47.73 207.277 48.629 206.859 49.1951C206.656 49.4725 206.261 49.6612 205.923 49.6945C205.562 49.7278 205.223 49.6168 204.93 49.4059C203.926 48.7067 203.068 47.8188 202.03 47.1639C201.894 47.0973 201.77 47.0196 201.624 46.953C200.924 46.6423 200.653 45.8542 200.924 45.1772C201.195 44.5001 202.075 44.2005 202.729 44.489V44.5001ZM203.057 28.0069C203.418 27.9736 203.756 28.0957 204.05 28.2955C205.471 29.2722 207.006 30.1157 208.044 31.5364C208.495 32.1468 208.349 32.9571 207.762 33.4232C207.198 33.8783 206.261 33.7229 205.844 33.1458C205.72 32.9682 205.573 32.8017 205.426 32.6463C204.512 31.7584 203.384 31.1257 202.335 30.4043C201.703 29.9714 201.703 29.0724 202.109 28.5063C202.312 28.2289 202.707 28.0402 203.045 28.0069H203.057ZM207.604 14.9099C207.649 14.6325 207.683 14.3661 207.706 14.0886C207.706 14.0331 207.706 13.9665 207.717 13.911C207.717 13.8888 207.717 13.8111 207.717 13.7667C207.717 13.689 207.717 13.6225 207.717 13.5448C207.706 12.79 208.157 12.1796 208.947 12.0686C209.635 11.9687 210.436 12.568 210.447 13.2784C210.47 14.5215 210.289 15.7091 209.94 16.8967C209.601 18.0288 209.172 19.1387 208.755 20.2486C208.495 20.959 207.604 21.192 206.95 20.9368C206.227 20.6593 206.002 19.8157 206.25 19.1609C206.6 18.2286 206.938 17.2963 207.254 16.3639C207.265 16.3084 207.333 16.1197 207.344 16.0643C207.378 15.9422 207.412 15.809 207.435 15.6869C207.491 15.4316 207.548 15.1763 207.593 14.921L207.604 14.9099ZM190.126 18.7502C189.787 18.7169 189.437 18.4839 189.246 18.2175C189.02 17.9178 188.952 17.5626 188.986 17.1964C189.009 16.93 189.02 16.6525 189.031 16.375C189.042 15.4427 188.986 14.4993 188.896 13.567C188.828 12.8122 189.381 12.1907 190.126 12.0908C190.859 11.9798 191.57 12.5902 191.626 13.3006C191.762 14.7435 191.818 16.1863 191.683 17.6181C191.615 18.3729 190.803 18.8168 190.114 18.7391L190.126 18.7502ZM170.797 13.911C170.109 13.6447 169.804 12.7789 170.097 12.1352C170.199 11.9021 170.278 11.669 170.357 11.4248C170.628 10.437 170.707 9.4048 170.74 8.38368C170.752 8.03961 171.023 7.71773 171.282 7.51795C171.575 7.28487 171.959 7.22937 172.32 7.26267C172.659 7.29597 173.008 7.52905 173.2 7.79543C173.437 8.1173 173.471 8.43917 173.46 8.81654C173.403 10.326 173.234 11.8244 172.613 13.2229C172.309 13.911 171.496 14.1774 170.808 13.911H170.797ZM173.505 24.6883C174.148 26.3087 171.587 27.2854 170.944 25.665C170.3 24.0445 172.862 23.0678 173.505 24.6883ZM152.292 28.0402C153.025 27.9292 153.736 28.5396 153.792 29.25C153.928 30.6929 153.984 32.1357 153.849 33.5675C153.781 34.3223 152.969 34.7662 152.28 34.6885C151.942 34.6552 151.592 34.4222 151.4 34.1558C151.175 33.8561 151.107 33.5009 151.141 33.1347C151.163 32.8683 151.175 32.5908 151.186 32.3244C151.197 31.3921 151.141 30.4487 151.051 29.5164C150.983 28.7616 151.536 28.1401 152.28 28.0402H152.292ZM140.196 11.6912C140.76 11.4803 137.77 20.4484 141.143 29.0058C144.517 37.5632 152.991 42.4357 152.427 42.6577C151.863 42.8797 143.547 38.0738 140.162 29.5275C136.788 20.9812 139.62 11.9132 140.184 11.7023L140.196 11.6912ZM157.471 5.6422C158.069 5.55341 153.206 13.7001 154.673 22.757C156.128 31.8139 163.361 38.3623 162.763 38.4511C162.165 38.5399 155.067 32.1246 153.612 23.0567C152.156 13.9887 156.884 5.73099 157.482 5.6422H157.471ZM146.684 46.0096C146.469 45.4547 162.21 38.9173 181.855 31.4032C201.5 23.8891 217.601 18.2508 217.827 18.8057C218.053 19.3607 202.301 25.8981 182.656 33.4121C163.011 40.9262 146.909 46.5646 146.684 46.0096Z" fill="#00BC74"/>
<path d="M37.5936 104.391C37.1874 107.499 35.2128 110.296 33.0125 112.538C39.5119 113.581 45.0408 112.737 47.0267 109.308C48.8885 106.089 45.2778 99.818 42.3666 95.5004C41.0803 93.5914 41.4188 91.0608 43.1452 89.5402C47.0832 86.0773 51.8336 81.4601 50.8632 77.8751C49.8251 74.0348 44.7362 71.6596 38.203 70.9159C38.6882 76.7985 36.8376 83.1915 34.9646 88.4525C34.344 90.184 31.681 89.0741 32.2904 87.3426C34.0619 82.3702 35.9237 76.2213 35.2692 70.6829C33.2269 70.6052 31.0943 70.6718 28.9278 70.8826C28.9053 71.5042 28.8601 72.1368 28.815 72.7584C28.4426 77.4977 27.1789 82.1149 26.0054 86.71C25.554 88.4747 22.6767 88.1195 23.1281 86.3437C24.121 82.459 25.1817 78.5632 25.7007 74.5897C25.8248 73.613 26.0167 72.4476 26.1182 71.2489C24.8093 71.4598 23.5117 71.7151 22.2141 72.0259C22.3721 74.7451 22.0561 77.5199 22.3382 80.217C22.53 82.0483 19.6527 82.4479 19.4609 80.6166C19.2352 78.3856 19.4609 76.077 19.4045 73.835C19.4045 73.4909 19.3819 73.158 19.3706 72.8139C16.561 73.7018 13.9658 74.8117 11.6752 76.0992C11.6752 76.1214 11.6978 76.1436 11.709 76.1547C12.4199 77.6309 13.1421 79.0849 14.2704 80.2947C15.2408 81.3269 16.5723 82.0039 17.4411 83.1361C18.5582 84.6011 16.2676 86.3437 15.1393 84.8786C14.2366 83.691 12.702 82.903 11.6978 81.7376C10.671 80.5389 9.9488 79.1404 9.2605 77.7419C9.23794 77.7086 9.22665 77.6642 9.20408 77.6309C7.62438 78.7075 6.23649 79.8618 5.09685 81.0605C5.59333 81.4157 6.07852 81.7931 6.54115 82.1593C7.98545 83.3247 6.21393 85.5889 4.76962 84.4124C4.21673 83.9685 3.62998 83.5134 3.03195 83.0917C2.81756 83.358 2.62574 83.6355 2.45648 83.9241C1.90359 84.8786 0.154628 85.7443 0.0756425 86.8653C0.0756425 86.9985 0.0417916 87.1317 0.0192244 87.2649C-0.183881 88.3748 1.28299 89.6512 1.56508 90.7056C1.83589 91.7046 2.33236 92.6258 3.00938 93.4471C3.41559 94.2462 3.8895 95.0565 4.4424 95.8667C6.72169 94.9011 8.53835 93.0586 10.5356 91.6602C12.0588 90.5946 13.8304 92.8589 12.3071 93.9244C10.2986 95.334 8.4368 97.1098 6.21393 98.1975C7.9516 100.24 10.1181 102.238 12.6456 104.069C12.6907 103.98 12.7471 103.902 12.7923 103.814C14.8459 100.317 16.6061 95.8223 20.1718 93.5248C21.7289 92.5259 23.5117 94.779 21.9433 95.789C20.1605 96.9433 18.9757 98.8191 17.9263 100.606C16.9334 102.282 16.0194 104.013 15.0264 105.678C15.647 106.067 16.2789 106.444 16.9334 106.81C18.0392 107.432 19.1901 108.009 20.341 108.553C20.5892 108.398 20.8262 108.22 21.0632 108.02C24.1097 105.434 25.633 101.327 27.1112 97.7647C27.822 96.0665 30.4963 97.1653 29.7854 98.8746C28.1831 102.704 26.4793 106.944 23.3312 109.84C25.4186 110.662 27.5287 111.328 29.5823 111.838C29.9659 111.516 30.3383 111.183 30.6881 110.828C32.516 109.008 34.3778 106.633 34.7276 104.025C34.9646 102.204 37.8419 102.571 37.6049 104.391H37.5936ZM37.8532 84.4124C38.0901 82.5922 40.9674 82.9585 40.7305 84.7787C40.4935 86.599 37.6162 86.2327 37.8532 84.4124ZM29.65 82.7587C29.2551 82.6144 29.1422 82.1815 29.2663 81.8264C29.3679 81.5156 29.4694 81.2159 29.5597 80.9051C29.5823 80.8385 29.5936 80.7719 29.6161 80.7054C29.6161 80.6943 29.6161 80.6832 29.6274 80.661C29.6387 80.6166 29.65 80.5722 29.6613 80.5278C29.7064 80.3613 29.7403 80.1948 29.7628 80.0283C29.7967 79.8507 29.8192 79.6842 29.8305 79.5066C29.8305 79.429 29.8305 79.3402 29.8418 79.2625C29.8418 79.2181 29.8418 79.1848 29.8418 79.1404C29.8418 79.0516 29.8305 78.9739 29.808 78.8851C29.808 78.8518 29.7967 78.8185 29.7854 78.7852C29.7854 78.7519 29.729 78.652 29.7741 78.7297C29.8305 78.8185 29.7741 78.7075 29.7515 78.6853C29.7403 78.652 29.729 78.6298 29.7177 78.5965C29.7064 78.5632 29.6838 78.541 29.6726 78.5077C29.4469 78.1748 29.4807 77.7752 29.808 77.5088C30.09 77.2757 30.6204 77.3201 30.8235 77.642C31.7713 79.0627 31.0717 80.9162 30.5978 82.3924C30.4737 82.7698 29.9885 82.903 29.65 82.7698V82.7587ZM15.5455 79.318C15.0151 78.6409 14.8346 77.7974 14.451 77.0537C14.2704 76.6986 14.4961 76.2768 14.8346 76.1214C15.0039 76.0437 15.2295 76.0548 15.3988 76.1214C15.5793 76.1991 15.7034 76.3323 15.7824 76.4988C16.0645 77.0759 16.2451 77.6975 16.5497 78.2635C16.5949 78.3301 16.6287 78.3967 16.6851 78.4633C16.9334 78.7852 16.8544 79.2181 16.5497 79.4622C16.2563 79.7064 15.7599 79.6287 15.5342 79.3291L15.5455 79.318ZM11.1561 86.8875C10.9756 86.8099 10.8515 86.6767 10.7725 86.5102C10.3663 85.6999 9.86982 84.9341 9.75698 84.0129C9.71185 83.6133 9.98265 83.2803 10.3776 83.2026C10.7612 83.1361 11.1561 83.4357 11.2013 83.8131C11.2126 83.9241 11.2351 84.0351 11.269 84.1461C11.4721 84.7898 11.8219 85.3559 12.1265 85.9552C12.3071 86.3104 12.0814 86.7322 11.7429 86.8875C11.5736 86.9652 11.348 86.9541 11.1787 86.8875H11.1561ZM5.6836 91.8266C5.59333 91.9376 5.50306 92.0597 5.42407 92.1818C5.40151 92.204 5.39022 92.2373 5.36766 92.2595C5.36766 92.2595 5.34509 92.3039 5.32252 92.3261C5.29995 92.3594 5.28867 92.3927 5.2661 92.426C5.07428 92.7812 4.71321 92.9477 4.31828 92.8034C3.96849 92.6813 3.7541 92.204 3.93464 91.871C4.2393 91.2939 4.63422 90.7833 5.09685 90.3172C5.54819 89.8732 6.03339 89.4736 6.5073 89.063C6.81196 88.7966 7.28587 88.9076 7.52283 89.1962C7.78235 89.5069 7.6808 89.9509 7.38742 90.1951C6.9925 90.5391 6.58629 90.8832 6.20264 91.2384C6.18008 91.2606 6.10109 91.3272 6.07852 91.3494C6.03339 91.3938 5.98825 91.4493 5.94312 91.5048C5.85285 91.6047 5.76258 91.7157 5.67231 91.8155L5.6836 91.8266ZM14.7782 94.3905C14.9249 94.4904 15.0264 94.6902 15.049 94.8567C15.0716 95.0565 15.0151 95.2341 14.9023 95.3895C14.8233 95.5115 14.7443 95.6336 14.6654 95.7557C14.4171 96.1886 14.2027 96.6326 14.0109 97.0876C13.8529 97.4539 13.4354 97.6093 13.0631 97.465C12.702 97.3318 12.5215 96.8767 12.6794 96.5327C12.9841 95.8334 13.3339 95.1453 13.7627 94.5126C13.9883 94.1797 14.4735 94.1686 14.7782 94.3794V94.3905ZM22.4962 101.438C22.7444 101.738 22.6654 102.204 22.3608 102.437C22.2592 102.515 22.1577 102.604 22.0561 102.704C21.6725 103.092 21.3791 103.547 21.097 104.013C21.0067 104.169 20.7924 104.258 20.6231 104.28C20.4313 104.313 20.2395 104.247 20.0815 104.136C19.9348 104.036 19.8332 103.836 19.8107 103.669C19.7768 103.458 19.8558 103.303 19.9574 103.137C20.3749 102.448 20.8375 101.794 21.4807 101.305C21.7966 101.061 22.2479 101.139 22.4962 101.438ZM24.0082 95.7668C24.1323 94.8567 25.5653 95.0343 25.4412 95.9444C25.3171 96.8545 23.8841 96.6769 24.0082 95.7668ZM34.705 99.4961C34.344 99.3629 34.1634 98.9079 34.3214 98.5638C34.6261 97.8645 34.9758 97.1764 35.4046 96.5438C35.6303 96.2108 36.1155 96.1997 36.4202 96.4106C36.5668 96.5105 36.6684 96.7102 36.691 96.8767C36.7135 97.0765 36.6571 97.2541 36.5443 97.4095C36.4653 97.5316 36.3863 97.6537 36.3073 97.7758C36.0591 98.2086 35.8447 98.6526 35.6416 99.1077C35.4836 99.4739 35.0661 99.6293 34.6938 99.485L34.705 99.4961ZM37.9886 91.3383C37.6726 91.2939 41.3624 87.8754 41.9943 83.0695C42.6261 78.2635 39.9519 73.8905 40.2679 73.9349C40.5838 73.9793 43.2129 78.2635 42.581 83.0695C41.9491 87.8754 38.3045 91.3716 37.9886 91.3272V91.3383ZM28.2057 90.0952C27.8897 90.0508 31.5795 86.6323 32.2114 81.8264C32.8433 77.0205 30.169 72.6474 30.485 72.6918C30.8009 72.7362 33.43 77.0205 32.7981 81.8264C32.1662 86.6323 28.5216 90.1285 28.2057 90.0841V90.0952ZM36.1042 110.085C35.7883 110.04 39.478 106.622 40.1099 101.816C40.7418 97.0099 38.0676 92.6369 38.3835 92.6813C38.6994 92.7257 41.3285 97.0099 40.6966 101.816C40.0648 106.622 36.4202 110.118 36.1042 110.074V110.085ZM26.5357 108.586C26.2311 108.475 30.5865 105.911 32.2339 101.35C33.8813 96.7879 32.2114 91.9598 32.516 92.0597C32.8207 92.1596 34.4568 96.91 32.7981 101.472C31.1394 106.033 26.8291 108.697 26.5244 108.586H26.5357ZM41.9153 92.5481C41.8701 92.8589 32.8884 91.9709 21.853 90.5724C10.8176 89.174 1.8923 87.7755 1.93744 87.4647C1.98257 87.1539 10.9643 88.0418 21.9997 89.4403C33.0351 90.8388 41.9604 92.2373 41.9153 92.5481Z" fill="#00BC74"/>
<path d="M160.958 159.52C161.33 159.42 158.78 164.959 160.337 170.664C161.894 176.368 166.972 180.076 166.599 180.175C166.227 180.275 161.24 176.635 159.682 170.93C158.125 165.225 160.585 159.62 160.958 159.52ZM172.568 156.457C172.941 156.357 170.391 161.895 171.948 167.6C173.505 173.305 178.583 177.012 178.21 177.112C177.838 177.212 172.85 173.572 171.293 167.867C169.736 162.162 172.196 156.557 172.568 156.457ZM154.221 137.544C154.594 137.444 152.043 142.982 153.601 148.687C155.158 154.392 160.235 158.099 159.863 158.199C159.491 158.299 154.503 154.659 152.946 148.954C151.389 143.249 153.849 137.644 154.221 137.544ZM165.708 134.858C166.103 134.836 162.413 139.719 162.706 145.624C163 151.529 167.164 156.201 166.769 156.224C166.374 156.246 162.289 151.651 161.996 145.746C161.702 139.841 165.313 134.88 165.697 134.858H165.708ZM155.948 159.953C155.846 159.587 166.385 156.468 179.497 153.005C192.597 149.542 203.305 147.034 203.406 147.4C203.508 147.766 192.969 150.885 179.858 154.348C166.757 157.811 156.049 160.319 155.948 159.953ZM155.225 144.636C154.221 140.94 155.113 136.9 156.546 133.359C148.726 135.158 142.892 138.632 142.272 143.404C141.696 147.888 148.715 153.293 154.041 156.845C156.388 158.41 157.211 161.418 155.97 163.926C153.172 169.62 150.001 177.001 152.788 180.597C155.778 184.449 162.628 184.793 170.346 182.651C167.017 176.246 166.092 168.188 165.708 161.407C165.584 159.165 169.116 159.198 169.24 161.429C169.601 167.844 170.402 175.625 173.753 181.563C176.089 180.719 178.47 179.665 180.805 178.433C180.535 177.723 180.298 176.99 180.049 176.257C178.221 170.741 177.477 164.97 176.619 159.254C176.292 157.067 179.711 156.146 180.038 158.355C180.749 163.194 181.392 168.055 182.69 172.783C183.006 173.938 183.344 175.347 183.796 176.746C185.172 175.913 186.515 175.026 187.824 174.082C186.357 171.096 185.409 167.822 183.818 164.903C182.746 162.927 185.793 161.174 186.865 163.138C188.185 165.558 188.997 168.255 190.137 170.752C190.306 171.13 190.487 171.507 190.656 171.884C193.409 169.598 195.801 167.156 197.776 164.67C197.753 164.648 197.731 164.637 197.72 164.615C196.23 163.272 194.718 161.962 192.879 161.118C191.288 160.397 189.471 160.241 187.971 159.365C186.007 158.221 187.779 155.203 189.731 156.357C191.31 157.278 193.409 157.478 195.09 158.321C196.817 159.198 198.295 160.452 199.728 161.718C199.762 161.751 199.807 161.784 199.841 161.818C201.116 159.886 202.131 157.955 202.854 156.079C202.12 155.902 201.398 155.702 200.71 155.491C198.532 154.836 199.457 151.484 201.646 152.139C202.481 152.394 203.35 152.639 204.23 152.827C204.343 152.439 204.422 152.039 204.478 151.629C204.648 150.308 206.205 148.521 205.776 147.222C205.72 147.067 205.686 146.9 205.641 146.745C205.347 145.402 203.091 144.636 202.267 143.571C201.488 142.561 200.495 141.761 199.344 141.14C198.509 140.419 197.595 139.73 196.591 139.076C194.47 141.207 193.308 144.103 191.705 146.601C190.498 148.499 187.429 146.767 188.648 144.869C190.25 142.361 191.514 139.519 193.499 137.266C190.577 135.757 187.192 134.503 183.491 133.593C183.48 133.715 183.457 133.837 183.446 133.948C182.791 138.831 182.927 144.692 179.993 148.92C178.718 150.763 175.649 149.031 176.935 147.189C178.402 145.069 178.842 142.416 179.192 139.93C179.519 137.588 179.733 135.224 180.061 132.882C179.181 132.727 178.289 132.583 177.386 132.472C175.841 132.283 174.283 132.15 172.726 132.072C172.523 132.361 172.343 132.671 172.173 133.004C169.962 137.311 170.188 142.627 170.199 147.322C170.199 149.564 166.667 149.542 166.667 147.3C166.667 142.25 166.588 136.689 168.755 131.994C166.013 132.028 163.327 132.227 160.766 132.594C160.484 133.126 160.224 133.681 159.987 134.236C158.791 137.122 157.809 140.652 158.644 143.748C159.231 145.913 155.824 146.812 155.225 144.647V144.636ZM164.376 167.267C164.963 169.432 161.556 170.331 160.958 168.166C160.36 166.002 163.778 165.103 164.376 167.267ZM174.408 165.38C174.915 165.358 175.243 165.802 175.288 166.257C175.322 166.646 175.355 167.045 175.389 167.434C175.389 167.511 175.412 167.6 175.423 167.678C175.423 167.689 175.423 167.711 175.423 167.733C175.423 167.789 175.446 167.844 175.446 167.9C175.48 168.1 175.513 168.311 175.559 168.51C175.604 168.721 175.66 168.932 175.728 169.132C175.762 169.232 175.795 169.321 175.829 169.42C175.852 169.465 175.874 169.509 175.897 169.554C175.942 169.642 175.999 169.731 176.055 169.82C176.078 169.853 176.1 169.887 176.123 169.92C176.145 169.964 176.247 170.042 176.157 169.975C176.055 169.898 176.179 169.998 176.202 170.02C176.224 170.053 176.258 170.075 176.281 170.097C176.303 170.12 176.348 170.153 176.371 170.175C176.777 170.453 176.935 170.919 176.698 171.363C176.484 171.762 175.874 171.94 175.491 171.685C173.742 170.519 173.652 168.1 173.505 166.235C173.46 165.747 173.956 165.391 174.396 165.369L174.408 165.38ZM191.931 162.816C192.845 163.338 193.454 164.193 194.233 164.881C194.605 165.203 194.549 165.78 194.233 166.113C194.086 166.279 193.815 166.368 193.601 166.368C193.364 166.368 193.161 166.268 192.98 166.113C192.382 165.602 191.897 164.97 191.277 164.481C191.198 164.426 191.119 164.37 191.04 164.326C190.611 164.082 190.498 163.56 190.712 163.138C190.927 162.728 191.525 162.595 191.92 162.816H191.931ZM193.308 152.283C193.545 152.283 193.748 152.383 193.928 152.539C194.775 153.26 195.7 153.904 196.253 154.881C196.501 155.302 196.343 155.813 195.937 156.068C195.542 156.324 194.955 156.157 194.729 155.757C194.662 155.635 194.583 155.524 194.504 155.413C193.973 154.781 193.308 154.303 192.687 153.771C192.315 153.449 192.371 152.872 192.687 152.539C192.834 152.372 193.105 152.283 193.319 152.283H193.308ZM197.144 144.214C197.189 144.048 197.234 143.87 197.268 143.693C197.268 143.659 197.279 143.615 197.291 143.582C197.291 143.571 197.291 143.515 197.302 143.493C197.302 143.449 197.302 143.393 197.313 143.349C197.358 142.86 197.686 142.505 198.205 142.483C198.656 142.461 199.13 142.905 199.085 143.36C199.006 144.159 198.814 144.903 198.498 145.646C198.205 146.357 197.844 147.022 197.505 147.711C197.291 148.143 196.704 148.232 196.298 148.032C195.858 147.811 195.767 147.256 195.971 146.845C196.253 146.268 196.546 145.702 196.817 145.125C196.828 145.091 196.885 144.98 196.896 144.936C196.93 144.858 196.952 144.78 196.986 144.703C197.043 144.547 197.099 144.381 197.144 144.225V144.214ZM185.691 145.48C185.477 145.435 185.274 145.258 185.161 145.08C185.037 144.869 185.025 144.636 185.071 144.414C185.104 144.237 185.138 144.07 185.161 143.893C185.24 143.293 185.262 142.694 185.274 142.083C185.274 141.595 185.68 141.24 186.165 141.218C186.639 141.195 187.057 141.639 187.045 142.094C187.034 143.027 186.966 143.948 186.774 144.869C186.673 145.347 186.131 145.58 185.691 145.48ZM173.663 141.062C173.234 140.84 173.11 140.274 173.336 139.875C173.415 139.73 173.482 139.586 173.55 139.442C173.787 138.831 173.911 138.176 174.013 137.522C174.047 137.3 174.238 137.111 174.419 137C174.622 136.867 174.87 136.856 175.096 136.911C175.31 136.956 175.513 137.133 175.626 137.311C175.762 137.533 175.75 137.744 175.717 137.977C175.581 138.942 175.355 139.886 174.87 140.74C174.622 141.162 174.092 141.273 173.663 141.062ZM174.633 148.143C174.927 149.231 173.223 149.675 172.929 148.599C172.636 147.522 174.34 147.067 174.633 148.143ZM160.822 148.832C161.296 148.809 161.714 149.253 161.702 149.708C161.691 150.641 161.623 151.562 161.431 152.483C161.33 152.96 160.788 153.194 160.348 153.094C160.134 153.049 159.931 152.872 159.818 152.694C159.694 152.483 159.682 152.25 159.728 152.028C159.761 151.862 159.795 151.684 159.818 151.507C159.897 150.907 159.919 150.308 159.931 149.697C159.931 149.209 160.337 148.854 160.822 148.832Z" fill="#00BC74"/>
<rect x="33.2067" y="233.176" width="167.634" height="194.67" fill="#FFEAF1" stroke="black" stroke-width="3"/>
<rect x="58.2258" y="234.676" width="4.70384" height="191.67" fill="#FFB843"/>
<rect x="86.4489" y="234.676" width="4.70383" height="191.67" fill="#FFB843"/>
<rect x="114.672" y="234.676" width="4.70383" height="191.67" fill="#FFB843"/>
<rect x="142.895" y="234.676" width="4.70384" height="191.67" fill="#FFB843"/>
<rect x="171.118" y="234.676" width="4.70383" height="191.67" fill="#FFB843"/>
<rect x="199.341" y="258.05" width="4.67489" height="164.634" transform="rotate(90 199.341 258.05)" fill="#FFB843"/>
<rect x="199.341" y="286.1" width="4.67489" height="164.634" transform="rotate(90 199.341 286.1)" fill="#FFB843"/>
<rect x="199.341" y="314.149" width="4.67489" height="164.634" transform="rotate(90 199.341 314.149)" fill="#FFB843"/>
<rect x="199.341" y="342.198" width="4.67489" height="164.634" transform="rotate(90 199.341 342.198)" fill="#FFB843"/>
<rect x="199.341" y="370.248" width="4.67489" height="164.634" transform="rotate(90 199.341 370.248)" fill="#FFB843"/>
<rect x="199.341" y="398.297" width="4.67489" height="164.634" transform="rotate(90 199.341 398.297)" fill="#FFB843"/>
</svg>
